<svg id="Layer_1" data-name="Layer 1" xmlns="http://www.w3.org/2000/svg" viewBox="0 0 512 512"><defs><style>.cls-1{fill:#dde5e8;}.cls-2{fill:#afc3c9;}.cls-3{fill:#198fd8;}.cls-4{fill:#34a551;}.cls-5{fill:#40c168;}.cls-6{opacity:0.1;}.cls-7{fill:#231f20;}</style></defs><title>shop-flat</title><path class="cls-1" d="M499.2,486.4H473.6V64h12.8V32a32,32,0,0,0-32-32H57.6a32,32,0,0,0-32,32V64H38.4V486.4H12.8a12.8,12.8,0,0,0,0,25.6H499.2a12.8,12.8,0,0,0,0-25.6Z"/><path class="cls-2" d="M121.6,268.8h89.6a32,32,0,0,1,32,32V512a0,0,0,0,1,0,0H89.6a0,0,0,0,1,0,0V300.8A32,32,0,0,1,121.6,268.8Z"/><rect class="cls-3" x="281.6" y="268.8" width="140.8" height="115.2" rx="32" ry="32"/><path class="cls-1" d="M204.8,396.8H192a12.8,12.8,0,0,1,0-25.6h12.8a12.8,12.8,0,0,1,0,25.6Z"/><path class="cls-4" d="M64,243.2h0a38.4,38.4,0,0,1-38.4-38.4V51.2h76.8V204.8A38.4,38.4,0,0,1,64,243.2Z"/><path class="cls-5" d="M140.8,243.2h0a38.4,38.4,0,0,1-38.4-38.4V51.2h76.8V204.8A38.4,38.4,0,0,1,140.8,243.2Z"/><path class="cls-4" d="M217.6,243.2h0a38.4,38.4,0,0,1-38.4-38.4V51.2H256V204.8A38.4,38.4,0,0,1,217.6,243.2Z"/><path class="cls-5" d="M294.4,243.2h0A38.4,38.4,0,0,1,256,204.8V51.2h76.8V204.8A38.4,38.4,0,0,1,294.4,243.2Z"/><path class="cls-4" d="M371.2,243.2h0a38.4,38.4,0,0,1-38.4-38.4V51.2h76.8V204.8A38.4,38.4,0,0,1,371.2,243.2Z"/><path class="cls-5" d="M448,243.2h0a38.4,38.4,0,0,1-38.4-38.4V51.2h76.8V204.8A38.4,38.4,0,0,1,448,243.2Z"/><g class="cls-6"><rect class="cls-7" x="25.6" y="166.4" width="460.8" height="25.6"/></g></svg>