<svg id="Layer_1" data-name="Layer 1" xmlns="http://www.w3.org/2000/svg" viewBox="0 0 512 512"><defs><style>.cls-1{fill:#dde5e8;}.cls-2{fill:#9bbdc6;}.cls-3{fill:#48b753;}.cls-4{fill:#e04848;}</style></defs><title>document-pie-chart-flat</title><path class="cls-1" d="M460.8,153.6V448a64,64,0,0,1-64,64H115.2a64,64,0,0,1-64-64V64a64,64,0,0,1,64-64H307.33Z"/><path class="cls-2" d="M460.8,153.6H371.2a64,64,0,0,1-64-64V0h.13Z"/><path class="cls-3" d="M243.2,230.4A89.6,89.6,0,1,0,332.8,320H243.2Z"/><path class="cls-4" d="M268.8,204.8v89.6h89.6A89.6,89.6,0,0,0,268.8,204.8Z"/></svg>